<svg xmlns="http://www.w3.org/2000/svg" viewBox="0 0 64 64">
	<path fill="#fff" d="M32,48.7A12.606,12.606,0,0,0,44.564,34.664l.012-.03-.018-.007A12.641,12.641,0,1,0,32,48.7Zm0-23.288a10.653,10.653,0,0,1,10.5,8.953,6.943,6.943,0,0,1-5.658,3.816c-3.065.2-5.34-1.246-7.351-2.521a14.2,14.2,0,0,0-2.824-1.523,14.125,14.125,0,0,0-5.012-.533A10.655,10.655,0,0,1,32,25.409ZM21.378,35.624a12.758,12.758,0,0,1,4.642.4,12.839,12.839,0,0,1,2.4,1.318c2.016,1.28,4.494,2.853,7.845,2.853q.347,0,.708-.024a8.436,8.436,0,0,0,5.54-2.514,10.638,10.638,0,0,1-21.154-1.607C21.356,35.908,21.372,35.767,21.378,35.624Z"/>
	<path fill="#fff" d="M9.787,64H54.213a1,1,0,0,0,1-1V58.949h.331a1,1,0,0,0,1-1V7.343A5.35,5.35,0,0,0,51.2,2H12.8A5.349,5.349,0,0,0,7.457,7.343V57.949a1,1,0,0,0,1,1h.33V63A1,1,0,0,0,9.787,64ZM54.544,14.687V28.28H47.721a17.521,17.521,0,0,0-31.442,0H9.457V14.687ZM32,20.494A15.559,15.559,0,1,1,16.441,36.053,15.577,15.577,0,0,1,32,20.494ZM15.436,30.28a17.56,17.56,0,1,0,33.127,0h5.981V56.949H9.457V30.28ZM53.213,62H10.787V58.949H53.213ZM54.544,7.343v5.344H26.063V4H51.2A3.347,3.347,0,0,1,54.544,7.343Zm-45.087,0A3.347,3.347,0,0,1,12.8,4H24.063v8.687H9.457Z"/>
	<path fill="#fff" d="M46.633 12.131a3.788 3.788 0 10-3.789-3.788A3.792 3.792 0 0046.633 12.131zm0-5.576a1.788 1.788 0 11-1.789 1.788A1.79 1.79 0 0146.633 6.555zM37.174 12.131a3.788 3.788 0 10-3.789-3.788A3.792 3.792 0 0037.174 12.131zm0-5.576a1.788 1.788 0 11-1.789 1.788A1.79 1.79 0 0137.174 6.555z"/>
	<rect fill="#fff" width="8.177" height="2" x="13.21" y="7.343"/>
</svg>
